<?xml version="1.0" encoding="UTF-8"?>
<svg width="318px" height="124px" viewBox="0 0 318 124" version="1.1" xmlns="http://www.w3.org/2000/svg" xmlns:xlink="http://www.w3.org/1999/xlink">
    <title>splitstripe-logo</title>
    <g id="Page-1" stroke="none" stroke-width="1" fill="none" fill-rule="evenodd">
        <g id="App---splash-screen" transform="translate(-36, -360)" fill="#FDF6FE" fill-rule="nonzero">
            <g id="splitstripe-logo" transform="translate(36.3544, 360)">
                <path d="M188.466142,0 L178.720816,49.0985222 C164.831268,54.3388361 163.276761,64.379164 163.276761,64.3798403 C161.181052,75.5474323 170.061288,79.3105004 172.307416,80.0750725 L172.457985,80.1251813 C172.665764,80.1926949 172.790551,80.2262008 172.809894,80.2313165 L178.678784,49.1404555 C181.768137,48.1908684 185.060193,47.5977146 188.635626,47.5977146 C192.450371,47.5977146 195.716665,48.1692254 198.465695,49.2885748 C201.214724,50.4079243 203.348866,52.0372372 204.863375,54.1920694 C206.378561,56.3469017 207.188016,59.0123737 207.299876,62.2026887 L193.423887,64.569893 C193.423209,63.3382704 193.09441,62.3311941 192.449015,61.5473113 C191.80362,60.7634285 190.979928,60.1777145 189.970482,59.8145178 C188.960357,59.4506446 187.92176,59.26465 186.856045,59.26465 C185.509664,59.26465 184.227688,59.4932543 183.02164,59.9409941 C181.815592,60.3887339 180.776995,61.0244973 179.907203,61.8645167 C179.037412,62.7038597 178.500487,63.6825296 178.27609,64.801879 C178.051693,66.0335016 178.266599,67.0412543 178.911316,67.8244607 C179.55671,68.6083435 180.50921,69.3225628 181.771527,69.938036 C183.033843,70.5541854 184.466321,71.1324596 186.093367,71.6924725 C188.225475,72.4202187 190.4308,73.1986908 192.703241,74.0387101 C194.975004,74.8780531 197.009489,75.9568219 198.804663,77.2723112 C200.599837,78.5878004 201.924523,80.2806896 202.766519,82.3239251 C203.607838,84.3664842 203.722409,86.9176541 203.105487,89.995696 C202.487888,93.2982841 201.09134,96.2633766 198.931437,98.8943551 C196.772211,101.524657 193.914034,103.625382 190.351482,105.192471 C186.788929,106.75956 182.506409,107.538709 177.513412,107.538709 C173.921708,107.538709 170.836423,107.001692 168.064343,106.122444 L165.5431,118.677419 L151.328143,118.698386 C151.328143,118.698386 152.644736,111.887401 154.038861,104.712457 L154.263394,103.557198 C154.288373,103.428708 154.313357,103.300213 154.338337,103.171747 L154.488118,102.40162 C155.311065,98.1711809 156.114834,94.0542232 156.645871,91.3700272 L156.645871,91.3483842 L157.005855,89.4884379 L156.984839,89.5100809 L161.751406,65.4998661 C158.617986,66.0010371 155.774724,66.1572725 153.256193,65.9435478 C150.619022,65.7196779 148.413019,65.012222 146.646319,63.8090059 C144.87894,62.6057898 143.683062,60.8188887 143.065462,58.4401866 C142.448541,56.0614845 142.505487,53.0246995 143.234946,49.3311845 L145.840931,36.2266798 L139.866961,36.2266798 L142.302784,23.9679433 L148.277432,23.9679433 L150.628513,12.2164649 L164.695681,12.2164649 L162.344599,23.9679433 L169.992393,23.9679433 L174.716927,0.147984085 L188.466142,0 Z M224.043354,64.875 L219.466854,87.927 C219.014854,90.3565 219.170229,92.206875 219.932979,93.478125 C220.695729,94.749375 222.094104,95.385 224.128104,95.385 C226.105604,95.385 227.744104,94.721125 229.043604,93.393375 C230.343104,92.065625 231.247104,90.187 231.755604,87.7575 L236.247354,64.875 L250.146354,64.875 L241.756104,107.25 L229.128354,107.25 L229.128354,102.3345 C227.489854,103.973 225.625354,105.30075 223.534854,106.31775 C221.444354,107.33475 219.240854,107.84325 216.924354,107.84325 C213.873354,107.84325 211.344979,107.122875 209.339229,105.682125 C207.333479,104.241375 205.963354,102.150875 205.228854,99.410625 C204.494354,96.670375 204.494354,93.37925 205.228854,89.53725 L210.144354,64.875 L224.043354,64.875 Z M304.208604,64.28175 C307.542104,64.28175 310.296479,65.002125 312.471729,66.442875 C314.646979,67.883625 316.130104,69.96 316.921104,72.672 C317.712104,75.384 317.740354,78.661 317.005854,82.503 L312.090354,107.25 L298.191354,107.25 L302.767854,84.198 C303.219854,81.8815 303.022104,80.115875 302.174604,78.901125 C301.327104,77.686375 299.914604,77.079 297.937104,77.079 C295.903104,77.079 294.208104,77.714625 292.852104,78.985875 C291.496104,80.257125 290.563854,82.1075 290.055354,84.537 L285.563604,107.25 L271.664604,107.25 L276.241104,84.198 C276.693104,81.8815 276.537729,80.115875 275.774979,78.901125 C275.012229,77.686375 273.642104,77.079 271.664604,77.079 C269.630604,77.079 267.977979,77.7005 266.706729,78.9435 C265.435479,80.1865 264.573854,81.96625 264.121854,84.28275 L259.545354,107.25 L245.646354,107.25 L254.036604,64.875 L266.579604,64.875 L266.749104,69.36675 C268.387604,67.89775 270.195604,66.683 272.173104,65.7225 C274.150604,64.762 276.241104,64.28175 278.444604,64.28175 C280.930604,64.28175 283.162354,64.84675 285.139854,65.97675 C287.117354,67.10675 288.614604,68.717 289.631604,70.8075 C291.552604,68.943 293.770229,67.38925 296.284479,66.14625 C298.798729,64.90325 301.440104,64.28175 304.208604,64.28175 Z M171.13607,89.2774186 L156.963145,91.7291659 C157.180763,102.974739 167.646057,105.863404 167.979601,105.953358 L171.13607,89.2774186 Z M172.87362,80.2948929 L171.13607,89.2354852 L171.136614,89.5981314 C171.159649,90.9701353 171.452327,92.1102858 172.047216,92.9763444 C172.720406,93.9556906 173.644433,94.6489433 174.822685,95.0682766 C176.000937,95.4882863 177.354097,95.7026873 178.869284,95.7026873 C181.505776,95.7026873 183.654832,95.1663465 185.309673,94.0754035 C186.964515,92.9837841 187.959724,91.5621089 188.296658,89.82661 C188.577324,88.4279304 188.362418,87.3058756 187.661433,86.4665326 C186.959769,85.6265132 185.892698,84.9190573 184.462254,84.3319907 C183.031809,83.7442477 181.369511,83.1510939 179.462477,82.5349444 C177.330369,81.9194713 175.196228,81.1910488 173.06412,80.3794359 C172.997682,80.3537348 172.937346,80.3219466 172.87362,80.2948929 Z M80.42013,23.3973118 C83.8986184,23.3973118 86.8279788,24.276221 89.2122789,26.0392471 C91.5965789,27.8022732 93.2649789,30.2818859 94.1903612,33.5001339 C95.1164214,36.7184496 95.1306581,40.5341123 94.2330711,44.9557794 C93.3917529,49.3771759 91.8521607,53.2282791 89.6359887,56.4747307 C87.4198167,59.7211823 84.7765452,62.2006597 81.6912595,63.9354822 C78.6059738,65.6709811 75.2895121,66.5353489 71.755433,66.5353489 C68.6694694,66.5353489 66.1699202,65.827893 64.2344136,64.400807 C63.2134423,63.648036 62.3721241,62.8127511 61.6711385,61.9274167 L57.5397979,82.7466401 L43.7480083,82.7466401 L55.4424003,23.9679433 L67.8993343,23.9679433 L67.6451084,29.2729834 C68.4871046,28.2095676 69.5758695,27.2306948 70.9500453,26.3351476 C72.324899,25.4396004 73.8360178,24.7110426 75.4630636,24.1793009 C77.0894315,23.6475591 78.7368155,23.3973118 80.42013,23.3973118 Z M31.7146485,6.59435478 C35.5295965,6.59435478 38.8169748,7.16579789 41.5659365,8.28521498 C44.3148982,9.40463207 46.4492434,11.0338773 47.9639553,13.1887096 C49.4786671,15.3435418 50.2880547,18.0088786 50.4003208,21.1991936 L36.5237893,23.5452283 C36.5237893,22.3138763 36.1944481,21.3063941 35.5492566,20.5228495 C34.9040651,19.7392372 34.0803732,19.1746252 33.0705201,18.8108197 C32.0607347,18.4470142 31.022205,18.2612902 29.9562866,18.2612902 C28.6098383,18.2612902 27.3279296,18.4898945 26.1216785,18.9376342 C24.915563,19.385374 23.8770332,20.0214756 23.007445,20.8610215 C22.1378568,21.7004998 21.6005927,22.6794402 21.3761281,23.7988573 C21.1517314,25.0302094 21.3665693,26.0376915 22.0117607,26.8212361 C22.6568844,27.6048484 23.6095197,28.319203 24.8717683,28.9348114 C26.1340169,29.5504874 27.5666986,30.1294379 29.1936088,30.6891126 C31.3254456,31.4167236 33.5313808,32.1956691 35.8034825,33.035215 C38.0755842,33.8746933 40.1096627,34.953665 41.9049044,36.2689513 C43.7001461,37.5842376 45.0251037,39.2775327 45.8665576,41.32043 C46.7080793,43.3632596 46.8226504,45.9143619 46.2055255,48.9930125 C45.5884684,52.2949243 44.1919207,55.2600167 42.0320173,57.8909952 C39.872114,60.5212973 37.0143436,62.622022 33.4519267,64.1891113 C29.8894421,65.7562005 25.6065151,66.5353489 20.6134504,66.5353489 C16.4059099,66.5353489 12.7673609,65.9421951 9.68173623,64.738979 C6.59617939,63.5357629 4.20408305,61.7630651 2.52110752,59.4127694 C0.838064191,57.0617974 0,54.1609576 0,50.7467727 L14.2154994,48.062363 C14.1593664,49.6855888 14.4744031,50.9936383 15.1476611,51.9729845 C15.8208513,52.9523307 16.74481,53.6455834 17.9229267,54.0655931 C19.1010435,54.4849264 20.4546101,54.6993275 21.9693219,54.6993275 C24.6061531,54.6993275 26.7335833,54.1629866 28.3885601,53.0720436 C30.0435369,51.9804243 31.0390856,50.558749 31.3756807,48.8239265 C31.6562105,47.4243677 31.462592,46.3025157 30.7613353,45.4630375 C30.0600785,44.6234915 28.9929398,43.915968 27.562292,43.3282926 C26.1317119,42.7406173 24.4488042,42.1262939 22.5413641,41.5106179 C20.4095273,40.8949419 18.2964016,40.187486 16.1645648,39.3759407 C14.0326602,38.5643278 12.0920012,37.528304 10.3808914,36.2689513 C8.66978151,35.0096663 7.43763326,33.3803534 6.65224468,31.3654567 C5.8668561,29.3505601 5.80957053,26.8212361 6.48276074,23.7988573 C7.21208403,20.1048689 8.77357348,16.9680526 11.1859401,14.3934136 C13.5983067,11.8188423 16.5706483,9.87529991 20.1049986,8.55994595 C23.6394167,7.24465961 27.507108,6.59435478 31.7146485,6.59435478 Z M119.867856,5.49529565 L107.834496,65.9435478 L94.0425712,65.9435478 L106.075931,5.49529565 L119.867856,5.49529565 Z M137.281992,23.9679433 L128.956263,65.9435478 L115.143322,65.9435478 L123.469051,23.9679433 L137.281992,23.9679433 Z M73.9587242,36.2266798 C72.6679345,36.2266798 71.4008726,36.5695862 70.1663515,37.2411959 C68.9318305,37.9128056 67.8647596,38.891746 66.9671727,40.1790317 C66.0695857,41.466385 65.4113101,43.0528177 65.0181073,44.9557794 C64.6818512,46.8027398 64.6960879,48.3958007 65.0608173,49.7112899 C65.4255467,51.0267791 66.098059,52.0338555 67.0519146,52.7338716 C68.0057702,53.4332114 69.158939,53.7693544 70.5053194,53.7693544 C71.9079685,53.7693544 73.211639,53.4190081 74.44616,52.6912619 C75.6800031,51.9635157 76.7186007,50.9422361 77.559919,49.6267469 C78.4019152,48.3112576 79.0032442,46.7467385 79.3395003,44.9557794 C79.9008312,42.3251391 79.6716889,40.2101435 78.6615646,38.6150536 C77.6521182,37.0198961 76.0901542,36.2266798 73.9587242,36.2266798 Z M167.555892,36.2266798 L159.887082,36.2266798 L157.281097,49.3311845 C156.944163,50.8982738 157.130595,52.0196522 157.832259,52.6912619 C158.533244,53.3628716 159.514218,53.6990146 160.776534,53.727421 C161.91072,53.7524458 163.03406,53.6334092 164.145197,53.4102157 L167.555892,36.2266798 Z M134.082813,5.49529565 C136.663715,5.49529565 138.582951,6.25246285 139.845267,7.73568542 C141.107584,9.21890798 141.530616,11.0481482 141.137413,13.2309811 C140.688619,15.3578127 139.542908,17.1585111 137.66367,18.6417337 C135.783754,20.1249563 133.577751,20.8610215 131.053796,20.8610215 C128.472895,20.8610215 126.538744,20.1249563 125.248632,18.6417337 C123.958521,17.1585111 123.528709,15.3578127 123.977503,13.2309811 C124.370028,11.0481482 125.50896,9.21890798 127.388198,7.73568542 C129.267436,6.25246285 131.50259,5.49529565 134.082813,5.49529565 Z" id="Combined-Shape"></path>
            </g>
        </g>
    </g>
</svg>