<?xml version="1.0" encoding="UTF-8"?>
<svg width="162px" height="64px" viewBox="0 0 162 64" version="1.1" xmlns="http://www.w3.org/2000/svg" xmlns:xlink="http://www.w3.org/1999/xlink">
    <title>splitstripe-logo</title>
    <g id="Page-1" stroke="none" stroke-width="1" fill="none" fill-rule="evenodd">
        <g id="App---" transform="translate(-114, -51)" fill="#FDF6FE" fill-rule="nonzero">
            <g id="splitstripe-logo" transform="translate(114.1805, 51)">
                <path d="M96.0110536,0 L91.0464533,25.0124547 C83.9706458,27.6820486 83.1787273,32.7969326 83.1787273,32.7972771 C81.9696097,39.2404116 87.9323106,40.8453378 88.0352289,40.8725575 L91.0250407,25.0338169 C92.5988622,24.550065 94.2759474,24.2478924 96.0973945,24.2478924 C98.0407549,24.2478924 99.7047163,24.5390393 101.105165,25.109274 C102.505614,25.6795086 103.592819,26.5095359 104.364361,27.6072806 C105.136248,28.7050254 105.548612,30.0629073 105.605597,31.6881622 L98.5366969,32.8940964 C98.5363515,32.2666661 98.3688502,31.7536272 98.0400642,31.3542907 C97.7112781,30.9549541 97.2916615,30.6565716 96.7774152,30.4715468 C96.2628236,30.2861775 95.7337267,30.1914255 95.1908153,30.1914255 C94.5049234,30.1914255 93.851841,30.3078843 93.2374393,30.5359781 C92.6230377,30.764072 92.0939408,31.0879515 91.6508394,31.5158858 C91.207738,31.9434757 90.9342101,32.4420434 90.8198948,33.012278 C90.7055795,33.6397084 90.8150597,34.1530918 91.1435004,34.5520838 C91.4722865,34.9514203 91.9575222,35.3152679 92.600589,35.6288108 C93.2436559,35.9426982 93.9734089,36.2372907 94.8022814,36.5225803 C95.8884496,36.893319 97.011917,37.2898991 98.1695755,37.7178335 C99.3268886,38.1454233 100.363324,38.6949848 101.277847,39.3651396 C102.19237,40.0352945 102.86721,40.8977098 103.296151,41.9386033 C103.724747,42.9791523 103.783114,44.2788049 103.468833,45.846864 C103.154207,47.5293146 102.442758,49.0398334 101.34243,50.3801431 C100.242447,51.7201084 98.7863947,52.7902889 96.9715095,53.5886174 C95.1566243,54.3869458 92.9749631,54.7838705 90.4313609,54.7838705 C88.601625,54.7838705 87.0298757,54.5102957 85.6176844,54.0623773 L84.3332775,60.458308 L77.0916956,60.4689891 C77.0916956,60.4689891 77.8508148,56.5419215 78.6090131,52.6423912 L78.7318361,52.0109009 C79.1404189,49.9109017 79.5367287,47.8814065 79.8007269,46.546995 L79.8007269,46.5359693 L79.9841149,45.5884495 L79.9734087,45.5994752 L82.4016594,33.3678563 C80.8053893,33.6231698 79.3569348,33.7027615 78.0739094,33.5938828 C76.7304454,33.4798359 75.6066325,33.1194339 74.7066152,32.5064747 C73.8062526,31.8935155 73.1970314,30.9832075 72.8824052,29.7714158 C72.5681244,28.5596242 72.597135,27.0125828 72.9687461,25.1309808 L74.2963234,18.455101 L71.2529802,18.455101 L72.4938713,12.2100843 L75.5375598,12.2100843 L76.7352805,6.22348214 L83.9015731,6.22348214 L82.7038525,12.2100843 L86.5998982,12.2100843 L89.0067364,0.0753881186 L96.0110536,0 Z M114.135294,33.0495283 L111.803869,44.793 C111.573605,46.0306698 111.652758,46.9733137 112.041329,47.6209316 C112.4299,48.2685495 113.142279,48.5923585 114.178468,48.5923585 C115.185874,48.5923585 116.020581,48.254158 116.682591,47.5777571 C117.3446,46.9013561 117.805129,45.9443208 118.064176,44.7066509 L120.352426,33.0495283 L127.433048,33.0495283 L123.15877,54.6367925 L116.725765,54.6367925 L116.725765,52.1326698 C115.891058,52.9673774 114.941218,53.6437783 113.876246,54.1618726 C112.811275,54.679967 111.688737,54.9390142 110.508633,54.9390142 C108.95435,54.9390142 107.66631,54.5720307 106.644513,53.8380637 C105.622716,53.1040967 104.924728,52.039125 104.550548,50.6431486 C104.176369,49.2471722 104.176369,47.5705613 104.550548,45.613316 L107.054671,33.0495283 L114.135294,33.0495283 Z M154.974195,32.7473066 C156.672393,32.7473066 158.075565,33.1142901 159.183711,33.8482571 C160.291857,34.5822241 161.047412,35.64 161.450374,37.0215849 C161.853336,38.4031698 161.867728,40.0725849 161.493548,42.0298302 L158.989426,54.6367925 L151.908803,54.6367925 L154.240228,42.8933208 C154.470492,41.713217 154.369751,40.8137476 153.938006,40.1949127 C153.506261,39.5760778 152.786685,39.2666604 151.779279,39.2666604 C150.743091,39.2666604 149.8796,39.5904693 149.188808,40.2380873 C148.498015,40.8857052 148.023096,41.8283491 147.764048,43.0660189 L145.475798,54.6367925 L138.395176,54.6367925 L140.7266,42.8933208 C140.956864,41.713217 140.877711,40.8137476 140.48914,40.1949127 C140.10057,39.5760778 139.402581,39.2666604 138.395176,39.2666604 C137.358987,39.2666604 136.517084,39.5832736 135.869466,40.2165 C135.221848,40.8497264 134.782907,41.7563915 134.552643,42.9364953 L132.221218,54.6367925 L125.140596,54.6367925 L129.414874,33.0495283 L135.804704,33.0495283 L135.891053,35.3377783 C136.725761,34.5894198 137.646817,33.9705849 138.654223,33.4812736 C139.661629,32.9919623 140.7266,32.7473066 141.849138,32.7473066 C143.115591,32.7473066 144.25252,33.0351368 145.259926,33.6107972 C146.267331,34.1864575 147.030081,35.0067736 147.548176,36.0717453 C148.526798,35.1219057 149.656532,34.3303726 150.937376,33.6971462 C152.218221,33.0639198 153.563827,32.7473066 154.974195,32.7473066 Z M87.1825264,45.4809491 L79.962357,46.7299524 C80.0523014,51.3779091 83.5786045,53.2235397 84.9968272,53.7790104 L85.1804795,53.848297 C85.4056195,53.9299206 85.5488658,53.969322 85.5745139,53.9762391 L87.1825264,45.4809491 Z M88.0676931,40.9049454 L87.1825264,45.4595868 L87.1825264,45.4809491 L87.1850619,45.7332907 C87.2075631,46.3926652 87.3565896,46.9429625 87.6466949,47.3653075 C87.9896409,47.8642197 88.4603714,48.2173862 89.0606131,48.4310088 C89.6608549,48.644976 90.3502004,48.7541992 91.1220879,48.7541992 C92.4652065,48.7541992 93.5600088,48.480969 94.4030411,47.9252055 C95.2460735,47.3690976 95.7530671,46.6448479 95.9247127,45.7607258 C96.0676932,45.048191 95.958213,44.4765781 95.6011071,44.0489883 C95.2436559,43.6210539 94.7000538,43.2606518 93.9713368,42.9615802 C93.2426198,42.6621639 92.3957885,42.3599912 91.4242809,42.0461038 C90.3381127,41.7325609 89.2509084,41.3614777 88.1647402,40.9480145 C88.1308946,40.9349215 88.1001572,40.9187275 88.0676931,40.9049454 Z M40.9687454,11.9193853 C42.7408056,11.9193853 44.2331213,12.3671314 45.4477647,13.2652768 C46.6624081,14.1634222 47.5123477,15.4266211 47.9837689,17.066106 C48.4555354,18.7056253 48.4627881,20.6494535 48.0055268,22.9020008 C47.5769307,25.1544104 46.7926102,27.1162931 45.6636169,28.7701458 C44.5346236,30.4239985 43.1880513,31.6871285 41.616302,32.570906 C40.0445527,33.4550281 38.3550345,33.8953664 36.5546545,33.8953664 C34.9825599,33.8953664 33.7092046,33.5349643 32.7231918,32.8079583 C32.2030744,32.4244712 31.7744783,31.9989487 31.4173724,31.5479292 L29.3127272,42.1539488 L22.2867212,42.1539488 L28.2442416,12.2100843 L34.5902269,12.2100843 L34.4607156,14.9126519 C34.8896571,14.3709118 35.4443109,13.8722408 36.1443627,13.4160186 C36.8447599,12.9597964 37.6145751,12.5886443 38.4434475,12.317757 C39.2719746,12.0468698 40.1112079,11.9193853 40.9687454,11.9193853 Z M16.1565191,3.35938828 C18.0999831,3.35938828 19.7746853,3.65050081 21.1750997,4.2207699 C22.5755142,4.79103898 23.6628221,5.62103184 24.4344678,6.71877657 C25.2061135,7.8165213 25.6184429,9.17433436 25.6756351,10.7995892 L18.6064587,11.9947389 C18.6064587,11.3674464 18.4386811,10.8542008 18.1099986,10.4550365 C17.7813162,10.0558378 17.3616995,9.7682053 16.8472461,9.58287043 C16.3328271,9.39753556 15.8037648,9.3029214 15.2607498,9.3029214 C14.5748233,9.3029214 13.9217755,9.4193802 13.3072702,9.64747405 C12.692834,9.8755679 12.1637716,10.1996197 11.7207739,10.6273129 C11.2777761,11.0549716 11.0040755,11.5536771 10.8897257,12.1239462 C10.7754103,12.7512387 10.884856,13.2644843 11.2135385,13.6636486 C11.5421864,14.0628473 12.0274912,14.4267638 12.6705235,14.7403756 C13.3135558,15.0540219 14.0434125,15.3489589 14.8722158,15.6340762 C15.9582459,16.004746 17.0820242,16.4015673 18.23951,16.8292605 C19.3969957,17.2569192 20.4332244,17.806584 21.3477815,18.4766356 C22.2623386,19.1466871 22.937317,20.0093091 23.3659822,21.0500304 C23.7946819,22.0907172 23.8530483,23.3903353 23.5386639,24.9587045 C23.2243141,26.6408105 22.5128653,28.1513293 21.4125371,29.4916391 C20.312209,30.8316043 18.8563637,31.9017848 17.0415476,32.7001133 C15.2266969,33.4984418 13.0448285,33.8953664 10.5011917,33.8953664 C8.35772768,33.8953664 6.50412723,33.5931937 4.93220525,32.9802346 C3.3603178,32.3672754 2.14170269,31.464203 1.28433779,30.2668825 C0.426938361,29.0692175 -1.42108547e-14,27.5914312 -1.42108547e-14,25.8521295 L7.2418582,24.4846 C7.21326211,25.3115264 7.37375253,25.9778912 7.71673302,26.4768034 C8.05967898,26.9757157 8.53037489,27.3288821 9.13054759,27.5428493 C9.73072028,27.7564719 10.4202731,27.8656951 11.1919187,27.8656951 C12.5352101,27.8656951 13.6189953,27.5924649 14.4620967,27.0367015 C15.305198,26.4805935 15.8123643,25.7563438 15.9838373,24.8725663 C16.1267487,24.1595835 16.0281129,23.588074 15.6708689,23.1604153 C15.3136249,22.7327221 14.7699882,22.3722856 14.0411676,22.0729038 C13.3123816,21.773522 12.4550512,21.4605648 11.4833364,21.1469186 C10.3973064,20.8332723 9.32080834,20.4728702 8.23477827,20.0594415 C7.14871367,19.6459783 6.16007611,19.1181926 5.28837863,18.4766356 C4.41668115,17.835113 3.78898298,17.0050857 3.38887937,15.9786289 C2.98877575,14.9521721 2.95959253,13.6636486 3.30253849,12.1239462 C3.67408055,10.242103 4.4695563,8.64410229 5.69849779,7.33249374 C6.92743927,6.02091964 8.44165101,5.03081316 10.2421691,4.36072718 C12.0427217,3.69067565 14.013055,3.35938828 16.1565191,3.35938828 Z M61.0647569,2.79949024 L54.9345547,33.5938828 L47.9084797,33.5938828 L54.0386818,2.79949024 L61.0647569,2.79949024 Z M69.9361092,12.2100843 L65.6947,33.5938828 L58.6579187,33.5938828 L62.8993278,12.2100843 L69.9361092,12.2100843 Z M37.6770859,18.455101 C37.0195138,18.455101 36.3740294,18.6297892 35.7451225,18.97193 C35.1162155,19.3140708 34.5726134,19.8127763 34.1153521,20.4685633 C33.6580908,21.1243848 33.3227429,21.9325675 33.122432,22.9020008 C32.9511317,23.8429052 32.9583844,24.6544645 33.1441899,25.3246194 C33.3299955,25.9947743 33.6725961,26.5078132 34.1585225,26.8644251 C34.644449,27.2206926 35.2319123,27.3919352 35.9178042,27.3919352 C36.6323613,27.3919352 37.2964953,27.213457 37.9254023,26.8427183 C38.5539638,26.4719797 39.0830607,25.9517052 39.5116568,25.2815503 C39.9405983,24.6113954 40.2469357,23.8143762 40.418236,22.9020008 C40.704197,21.5618633 40.5874641,20.4844127 40.0728725,19.6718198 C39.5586263,18.8591924 38.7629088,18.455101 37.6770859,18.455101 Z M85.3586617,18.455101 L81.4519098,18.455101 L80.1243325,25.1309808 C79.9526868,25.9293093 80.0476618,26.5005776 80.405113,26.8427183 C80.7622189,27.1848591 81.2619599,27.3561018 81.9050267,27.370573 C82.4828199,27.3833214 83.0550872,27.3226802 83.621138,27.2089778 L85.3586617,18.455101 Z M68.3063388,2.79949024 C69.6211377,2.79949024 70.5988618,3.18521692 71.2419286,3.94082087 C71.8849954,4.69642482 72.1005023,5.6283019 71.9001914,6.74031111 C71.6715608,7.82379136 71.0878965,8.74112832 70.1305488,9.49673227 C69.1728559,10.2523362 68.049043,10.6273129 66.7632547,10.6273129 C65.4484558,10.6273129 64.4631338,10.2523362 63.805907,9.49673227 C63.1486803,8.74112832 62.9297198,7.82379136 63.1583505,6.74031111 C63.3583159,5.6283019 63.9385266,4.69642482 64.8958742,3.94082087 C65.8532219,3.18521692 66.9918853,2.79949024 68.3063388,2.79949024 Z" id="Combined-Shape"></path>
            </g>
        </g>
    </g>
</svg>