<?xml version="1.0" encoding="UTF-8"?>
<svg width="40px" height="29px" viewBox="0 0 40 29" version="1.1" xmlns="http://www.w3.org/2000/svg" xmlns:xlink="http://www.w3.org/1999/xlink">
    <title>Shape</title>
    <g id="Page-1" stroke="none" stroke-width="1" fill="none" fill-rule="evenodd">
        <g id="App---" transform="translate(-29, -768)" fill="#FDF6FE" fill-rule="nonzero">
            <g id="BOTTOM-MENU" transform="translate(-2, 744)">
                <path d="M31,53 L31,47.925 C31,46.8979167 31.2643229,45.9539063 31.7929688,45.0929687 C32.3216146,44.2320312 33.0239583,43.575 33.9,43.121875 C35.7729167,42.1854167 37.6760417,41.4830729 39.609375,41.0148437 C41.5427083,40.5466146 43.50625,40.3125 45.5,40.3125 C47.49375,40.3125 49.4572917,40.5466146 51.390625,41.0148437 C53.3239583,41.4830729 55.2270833,42.1854167 57.1,43.121875 C57.9760417,43.575 58.6783854,44.2320312 59.2070312,45.0929687 C59.7356771,45.9539063 60,46.8979167 60,47.925 L60,53 L31,53 Z M63.625,53 L63.625,47.5625 C63.625,46.2333333 63.2549479,44.9570312 62.5148438,43.7335937 C61.7747396,42.5101563 60.725,41.4604167 59.365625,40.584375 C60.90625,40.765625 62.35625,41.0752604 63.715625,41.5132813 C65.075,41.9513021 66.34375,42.4875 67.521875,43.121875 C68.609375,43.7260417 69.4401042,44.3981771 70.0140625,45.1382812 C70.5880208,45.8783854 70.875,46.6864583 70.875,47.5625 L70.875,53 L63.625,53 Z M45.5,38.5 C43.50625,38.5 41.7994792,37.7901042 40.3796875,36.3703125 C38.9598958,34.9505208 38.25,33.24375 38.25,31.25 C38.25,29.25625 38.9598958,27.5494792 40.3796875,26.1296875 C41.7994792,24.7098958 43.50625,24 45.5,24 C47.49375,24 49.2005208,24.7098958 50.6203125,26.1296875 C52.0401042,27.5494792 52.75,29.25625 52.75,31.25 C52.75,33.24375 52.0401042,34.9505208 50.6203125,36.3703125 C49.2005208,37.7901042 47.49375,38.5 45.5,38.5 Z M63.625,31.25 C63.625,33.24375 62.9151042,34.9505208 61.4953125,36.3703125 C60.0755208,37.7901042 58.36875,38.5 56.375,38.5 C56.0427083,38.5 55.6197917,38.4622396 55.10625,38.3867188 C54.5927083,38.3111979 54.1697917,38.228125 53.8375,38.1375 C54.653125,37.1708333 55.2799479,36.0984375 55.7179688,34.9203125 C56.1559896,33.7421875 56.375,32.51875 56.375,31.25 C56.375,29.98125 56.1559896,28.7578125 55.7179688,27.5796875 C55.2799479,26.4015625 54.653125,25.3291667 53.8375,24.3625 C54.2604167,24.2114583 54.6833333,24.1132812 55.10625,24.0679687 C55.5291667,24.0226563 55.9520833,24 56.375,24 C58.36875,24 60.0755208,24.7098958 61.4953125,26.1296875 C62.9151042,27.5494792 63.625,29.25625 63.625,31.25 Z M34.625,49.375 L56.375,49.375 L56.375,47.925 C56.375,47.5927083 56.2919271,47.290625 56.1257813,47.01875 C55.9596354,46.746875 55.740625,46.5354167 55.46875,46.384375 C53.8375,45.56875 52.1911458,44.9570313 50.5296875,44.5492188 C48.8682292,44.1414063 47.1916667,43.9375 45.5,43.9375 C43.8083333,43.9375 42.1317708,44.1414063 40.4703125,44.5492188 C38.8088542,44.9570313 37.1625,45.56875 35.53125,46.384375 C35.259375,46.5354167 35.0403646,46.746875 34.8742188,47.01875 C34.7080729,47.290625 34.625,47.5927083 34.625,47.925 L34.625,49.375 Z M45.5,34.875 C46.496875,34.875 47.3502604,34.5200521 48.0601563,33.8101563 C48.7700521,33.1002604 49.125,32.246875 49.125,31.25 C49.125,30.253125 48.7700521,29.3997396 48.0601563,28.6898438 C47.3502604,27.9799479 46.496875,27.625 45.5,27.625 C44.503125,27.625 43.6497396,27.9799479 42.9398438,28.6898438 C42.2299479,29.3997396 41.875,30.253125 41.875,31.25 C41.875,32.246875 42.2299479,33.1002604 42.9398438,33.8101563 C43.6497396,34.5200521 44.503125,34.875 45.5,34.875 Z" id="Shape"></path>
            </g>
        </g>
    </g>
</svg>