<?xml version="1.0" encoding="UTF-8"?>
<svg width="35px" height="30px" viewBox="0 0 35 30" version="1.1" xmlns="http://www.w3.org/2000/svg" xmlns:xlink="http://www.w3.org/1999/xlink">
    <title>user</title>
    <g id="Page-1" stroke="none" stroke-width="1" fill="none" fill-rule="evenodd">
        <g id="App---" transform="translate(-229, -767)" fill="#FDF6FE" fill-rule="nonzero">
            <g id="BOTTOM-MENU" transform="translate(-2, 744)">
                <path d="M245.105793,37.1057935 C243.166247,37.1057935 241.505877,36.4151973 240.124685,35.034005 C238.743493,33.6528128 238.052897,31.9924433 238.052897,30.0528967 C238.052897,28.1133501 238.743493,26.4529807 240.124685,25.0717884 C241.505877,23.6905961 243.166247,23 245.105793,23 C247.04534,23 248.705709,23.6905961 250.086902,25.0717884 C251.468094,26.4529807 252.15869,28.1133501 252.15869,30.0528967 C252.15869,31.9924433 251.468094,33.6528128 250.086902,35.034005 C248.705709,36.4151973 247.04534,37.1057935 245.105793,37.1057935 Z M231,51.2115869 L231,46.2745592 C231,45.3047859 231.24979,44.3937867 231.74937,43.5415617 C232.24895,42.6893367 232.939547,42.0428212 233.821159,41.6020151 C235.319899,40.8379513 237.009656,40.1914358 238.890428,39.6624685 C240.771201,39.1335013 242.842989,38.8690176 245.105793,38.8690176 L245.722922,38.8690176 C245.899244,38.8690176 246.075567,38.8984047 246.251889,38.9571788 C246.016793,39.4861461 245.81843,40.0371537 245.656801,40.6102015 C245.495172,41.1832494 245.370277,41.7783375 245.282116,42.395466 L245.105793,42.395466 C243.019312,42.395466 241.145886,42.6599496 239.485516,43.1889169 C237.825147,43.7178841 236.465995,44.2468514 235.40806,44.7758186 C235.143577,44.922754 234.930521,45.1284635 234.768892,45.3929471 C234.607263,45.6574307 234.526448,45.9513014 234.526448,46.2745592 L234.526448,47.6851385 L245.634761,47.6851385 C245.811083,48.302267 246.04618,48.9120487 246.34005,49.5144836 C246.633921,50.1169186 246.957179,50.6826196 247.309824,51.2115869 L231,51.2115869 Z M255.685139,52.9748111 L255.156171,50.3299748 C254.803526,50.1830395 254.472922,50.0287573 254.164358,49.8671285 C253.855793,49.7054996 253.539882,49.5071369 253.216625,49.2720403 L250.65995,50.0654912 L248.896725,47.0680101 L250.924433,45.3047859 C250.865659,44.8933669 250.836272,44.511335 250.836272,44.1586902 C250.836272,43.8060453 250.865659,43.4240134 250.924433,43.0125945 L248.896725,41.2493703 L250.65995,38.2518892 L253.216625,39.0453401 C253.539882,38.8102435 253.855793,38.6118808 254.164358,38.4502519 C254.472922,38.288623 254.803526,38.1343409 255.156171,37.9874055 L255.685139,35.3425693 L259.211587,35.3425693 L259.740554,37.9874055 C260.093199,38.1343409 260.423804,38.2959698 260.732368,38.4722922 C261.040932,38.6486146 261.356843,38.8690176 261.680101,39.1335013 L264.236776,38.2518892 L266,41.3375315 L263.972292,43.1007557 C264.031066,43.4534005 264.060453,43.8207389 264.060453,44.2027708 C264.060453,44.5848027 264.031066,44.9521411 263.972292,45.3047859 L266,47.0680101 L264.236776,50.0654912 L261.680101,49.2720403 C261.356843,49.5071369 261.040932,49.7054996 260.732368,49.8671285 C260.423804,50.0287573 260.093199,50.1830395 259.740554,50.3299748 L259.211587,52.9748111 L255.685139,52.9748111 Z M257.448363,47.6851385 C258.418136,47.6851385 259.248321,47.3398405 259.938917,46.6492443 C260.629513,45.9586482 260.974811,45.1284635 260.974811,44.1586902 C260.974811,43.1889169 260.629513,42.3587322 259.938917,41.668136 C259.248321,40.9775399 258.418136,40.6322418 257.448363,40.6322418 C256.478589,40.6322418 255.648405,40.9775399 254.957809,41.668136 C254.267212,42.3587322 253.921914,43.1889169 253.921914,44.1586902 C253.921914,45.1284635 254.267212,45.9586482 254.957809,46.6492443 C255.648405,47.3398405 256.478589,47.6851385 257.448363,47.6851385 Z M245.105793,33.5793451 C246.075567,33.5793451 246.905751,33.234047 247.596348,32.5434509 C248.286944,31.8528547 248.632242,31.02267 248.632242,30.0528967 C248.632242,29.0831234 248.286944,28.2529387 247.596348,27.5623426 C246.905751,26.8717464 246.075567,26.5264484 245.105793,26.5264484 C244.13602,26.5264484 243.305835,26.8717464 242.615239,27.5623426 C241.924643,28.2529387 241.579345,29.0831234 241.579345,30.0528967 C241.579345,31.02267 241.924643,31.8528547 242.615239,32.5434509 C243.305835,33.234047 244.13602,33.5793451 245.105793,33.5793451 Z" id="user"></path>
            </g>
        </g>
    </g>
</svg>