<?xml version="1.0" encoding="UTF-8"?>
<svg width="29px" height="29px" viewBox="0 0 29 29" version="1.1" xmlns="http://www.w3.org/2000/svg" xmlns:xlink="http://www.w3.org/1999/xlink">
    <title>settings</title>
    <g id="Page-1" stroke="none" stroke-width="1" fill="none" fill-rule="evenodd">
        <g id="App---" transform="translate(-326, -768)" fill="#FDF6FE" fill-rule="nonzero">
            <g id="BOTTOM-MENU" transform="translate(-2, 744)">
                <path d="M333.316667,37.8095238 L332.902381,35.7380952 C332.62619,35.6230159 332.367262,35.5021825 332.125595,35.3755952 C331.883929,35.2490079 331.636508,35.0936508 331.383333,34.9095238 L329.380952,35.5309524 L328,33.1833333 L329.588095,31.802381 C329.542063,31.5031746 329.519048,31.2039683 329.519048,30.9047619 C329.519048,30.6055556 329.542063,30.3063492 329.588095,30.0071429 L328,28.6261905 L329.380952,26.2785714 L331.383333,26.9 C331.636508,26.715873 331.883929,26.5605159 332.125595,26.4339286 C332.367262,26.3073413 332.62619,26.1865079 332.902381,26.0714286 L333.316667,24 L336.078571,24 L336.492857,26.0714286 C336.769048,26.1865079 337.027976,26.3073413 337.269643,26.4339286 C337.51131,26.5605159 337.75873,26.715873 338.011905,26.9 L340.014286,26.2785714 L341.395238,28.6261905 L339.807143,30.0071429 C339.853175,30.3063492 339.87619,30.6055556 339.87619,30.9047619 C339.87619,31.2039683 339.853175,31.5031746 339.807143,31.802381 L341.395238,33.1833333 L340.014286,35.5309524 L338.011905,34.9095238 C337.75873,35.0936508 337.51131,35.2490079 337.269643,35.3755952 C337.027976,35.5021825 336.769048,35.6230159 336.492857,35.7380952 L336.078571,37.8095238 L333.316667,37.8095238 Z M334.697619,33.6666667 C335.457143,33.6666667 336.107341,33.3962302 336.648214,32.8553571 C337.189087,32.3144841 337.459524,31.6642857 337.459524,30.9047619 C337.459524,30.1452381 337.189087,29.4950397 336.648214,28.9541667 C336.107341,28.4132937 335.457143,28.1428571 334.697619,28.1428571 C333.938095,28.1428571 333.287897,28.4132937 332.747024,28.9541667 C332.206151,29.4950397 331.935714,30.1452381 331.935714,30.9047619 C331.935714,31.6642857 332.206151,32.3144841 332.747024,32.8553571 C333.287897,33.3962302 333.938095,33.6666667 334.697619,33.6666667 Z M345.67619,53 L345.054762,50.1 C344.663492,49.9619048 344.300992,49.7950397 343.967262,49.5994048 C343.633532,49.4037698 343.305556,49.1793651 342.983333,48.9261905 L340.221429,49.8238095 L338.288095,46.5095238 L340.497619,44.5761905 C340.451587,44.1619048 340.428571,43.747619 340.428571,43.3333333 C340.428571,42.9190476 340.451587,42.5047619 340.497619,42.0904762 L338.288095,40.1571429 L340.221429,36.8428571 L342.983333,37.7404762 C343.305556,37.4873016 343.633532,37.2628968 343.967262,37.0672619 C344.300992,36.871627 344.663492,36.7047619 345.054762,36.5666667 L345.67619,33.6666667 L349.542857,33.6666667 L350.164286,36.5666667 C350.555556,36.7047619 350.918056,36.871627 351.251786,37.0672619 C351.585516,37.2628968 351.913492,37.4873016 352.235714,37.7404762 L354.997619,36.8428571 L356.930952,40.1571429 L354.721429,42.0904762 C354.76746,42.5047619 354.790476,42.9190476 354.790476,43.3333333 C354.790476,43.747619 354.76746,44.1619048 354.721429,44.5761905 L356.930952,46.5095238 L354.997619,49.8238095 L352.235714,48.9261905 C351.913492,49.1793651 351.585516,49.4037698 351.251786,49.5994048 C350.918056,49.7950397 350.555556,49.9619048 350.164286,50.1 L349.542857,53 L345.67619,53 Z M347.609524,47.4761905 C348.760317,47.4761905 349.738492,47.0734127 350.544048,46.2678571 C351.349603,45.4623016 351.752381,44.484127 351.752381,43.3333333 C351.752381,42.1825397 351.349603,41.2043651 350.544048,40.3988095 C349.738492,39.593254 348.760317,39.1904762 347.609524,39.1904762 C346.45873,39.1904762 345.480556,39.593254 344.675,40.3988095 C343.869444,41.2043651 343.466667,42.1825397 343.466667,43.3333333 C343.466667,44.484127 343.869444,45.4623016 344.675,46.2678571 C345.480556,47.0734127 346.45873,47.4761905 347.609524,47.4761905 Z" id="settings"></path>
            </g>
        </g>
    </g>
</svg>