<?xml version="1.0" encoding="UTF-8"?>
<svg width="35px" height="26px" viewBox="0 0 35 26" version="1.1" xmlns="http://www.w3.org/2000/svg" xmlns:xlink="http://www.w3.org/1999/xlink">
    <title>payments</title>
    <g id="Page-1" stroke="none" stroke-width="1" fill="none" fill-rule="evenodd">
        <g id="App---" transform="translate(-131, -769)" fill="#FDF6FE" fill-rule="nonzero">
            <g id="BOTTOM-MENU" transform="translate(-2, 744)">
                <path d="M153.681818,39.3181818 C152.356061,39.3181818 151.229167,38.8541667 150.301136,37.9261364 C149.373106,36.9981061 148.909091,35.8712121 148.909091,34.5454545 C148.909091,33.219697 149.373106,32.092803 150.301136,31.1647727 C151.229167,30.2367424 152.356061,29.7727273 153.681818,29.7727273 C155.007576,29.7727273 156.13447,30.2367424 157.0625,31.1647727 C157.99053,32.092803 158.454545,33.219697 158.454545,34.5454545 C158.454545,35.8712121 157.99053,36.9981061 157.0625,37.9261364 C156.13447,38.8541667 155.007576,39.3181818 153.681818,39.3181818 Z M142.545455,44.0909091 C141.670455,44.0909091 140.921402,43.7793561 140.298295,43.15625 C139.675189,42.5331439 139.363636,41.7840909 139.363636,40.9090909 L139.363636,28.1818182 C139.363636,27.3068182 139.675189,26.5577652 140.298295,25.9346591 C140.921402,25.311553 141.670455,25 142.545455,25 L164.818182,25 C165.693182,25 166.442235,25.311553 167.065341,25.9346591 C167.688447,26.5577652 168,27.3068182 168,28.1818182 L168,40.9090909 C168,41.7840909 167.688447,42.5331439 167.065341,43.15625 C166.442235,43.7793561 165.693182,44.0909091 164.818182,44.0909091 L142.545455,44.0909091 Z M145.727273,40.9090909 L161.636364,40.9090909 C161.636364,40.0340909 161.947917,39.2850379 162.571023,38.6619318 C163.194129,38.0388258 163.943182,37.7272727 164.818182,37.7272727 L164.818182,31.3636364 C163.943182,31.3636364 163.194129,31.0520833 162.571023,30.4289773 C161.947917,29.8058712 161.636364,29.0568182 161.636364,28.1818182 L145.727273,28.1818182 C145.727273,29.0568182 145.41572,29.8058712 144.792614,30.4289773 C144.169508,31.0520833 143.420455,31.3636364 142.545455,31.3636364 L142.545455,37.7272727 C143.420455,37.7272727 144.169508,38.0388258 144.792614,38.6619318 C145.41572,39.2850379 145.727273,40.0340909 145.727273,40.9090909 Z M163.227273,50.4545455 L136.181818,50.4545455 C135.306818,50.4545455 134.557765,50.1429924 133.934659,49.5198864 C133.311553,48.8967803 133,48.1477273 133,47.2727273 L133,29.7727273 L136.181818,29.7727273 L136.181818,47.2727273 L163.227273,47.2727273 L163.227273,50.4545455 Z M142.605114,40.9090909 L142.605114,28.1818182 L142.605114,40.9090909 Z" id="payments"></path>
            </g>
        </g>
    </g>
</svg>